HIERARCHY
ROOT pelvis
{
  OFFSET 0 100 0
  CHANNELS 6 Xposition Yposition Zposition Zrotation Xrotation Yrotation
  JOINT pelvis_right_femur
  {
    OFFSET -10.78128 -3.44521 -0.5502486
    CHANNELS 3 Zrotation Xrotation Yrotation
    JOINT right_femur_tibia
    {
      OFFSET -0.8047443 -44.0398 -0.1307829
      CHANNELS 3 Zrotation Xrotation Yrotation
      JOINT right_tibia_foot
      {
        OFFSET 3.006224 -47.83518 -5
        CHANNELS 3 Zrotation Xrotation Yrotation
        End Site
        {
          OFFSET 0 -5 15
        }
      }
    }
  }
  JOINT pelvis_left_femur
  {
    OFFSET 10.78128 -3.44521 -0.5502486
    CHANNELS 3 Zrotation Xrotation Yrotation
    JOINT left_femur_tibia
    {
      OFFSET 0.8047443 -44.0398 -0.1307829
      CHANNELS 3 Zrotation Xrotation Yrotation
      JOINT left_tibia_foot
      {
        OFFSET -4.370144 -48.10324 -4.275266
        CHANNELS 3 Zrotation Xrotation Yrotation
        End Site
        {
          OFFSET 0 -5 15
        }
      }
    }
  }
  JOINT pelvis_spine1
  {
    OFFSET 0 6.468898 -3.129235
    CHANNELS 3 Zrotation Xrotation Yrotation
    JOINT spine1
    {
      OFFSET 0 23.15396 4.99043
      CHANNELS 3 Zrotation Xrotation Yrotation
      JOINT spine2
      {
        OFFSET 0 20.79997 -5.064912
        CHANNELS 3 Zrotation Xrotation Yrotation
        JOINT neck
        {
          OFFSET 0 14.38658 9.616178
          CHANNELS 3 Zrotation Xrotation Yrotation
          End Site
          {
            OFFSET 0 20 0
          }
        }
      }
      JOINT right_manubrium
      {
        OFFSET -5.722621 16.35077 3.967754
        CHANNELS 3 Zrotation Xrotation Yrotation
        JOINT right_clavicle
        {
          OFFSET -13.16364 1.694482 -4.693211
          CHANNELS 3 Zrotation Xrotation Yrotation
          JOINT right_humerus
          {
            OFFSET -28.5034 -0.3100689 -2.792744
            CHANNELS 3 Zrotation Xrotation Yrotation
            JOINT right_radius
            {
              OFFSET -25.15693 0.02248979 -1.271978
              CHANNELS 3 Zrotation Xrotation Yrotation
              End Site
              {
                OFFSET -15 0 0
              }
            }
          }
        }
      }
      JOINT left_manubrium
      {
        OFFSET 5.722621 16.35077 3.967754
        CHANNELS 3 Zrotation Xrotation Yrotation
        JOINT left_clavicle
        {
          OFFSET 13.16364 1.694482 -4.693211
          CHANNELS 3 Zrotation Xrotation Yrotation
          JOINT left_humerus
          {
            OFFSET 29.39168 -1.063119 -2.237045
            CHANNELS 3 Zrotation Xrotation Yrotation
            JOINT left_radius
            {
              OFFSET 24.59957 -0.9528479 0.9047498
              CHANNELS 3 Zrotation Xrotation Yrotation
              End Site
              {
                OFFSET 15 -0 -0
              }
            }
          }
        }
      }
    }
  }
}
MOTION
Frames: 11
Frame Time: 0.0416666666667
0 103.5113 0 0.5587184 -0.456912 -0.215789 4.852307 -18.01782 12.18178 -0 40.1525 -0 -6.32248 -15.10315 -3.434552 -7.578323 9.954144 -23.88971 -0 3.574254 -0 18.19763 -11.86209 32.13439 -4.09582 -3.643935 4.616371 3.614376 11.27211 -7.986535 1.621103 21.73807 6.601814 2.09702 -27.07211 10.6495 5.991283 -21.65589 12.60695 86.53343 37.4371 -17.63806 -0 0 14.44448 -6.628186 8.532479 6.623427 4.165889 -18.61616 -1.782042 -91.78141 21.50319 21.12891 0 0 -16.47454 14.59559 13.36109 -1.833165
0.3987136 104.0555 1.453508 0.5749595 -0.1478264 -0.3746912 5.007664 -19.27373 11.90488 -0 39.23336 -0 -6.171638 -14.58305 -3.213137 -7.576329 10.07035 -23.61783 -0 3.481006 -0 18.23509 -12.16145 31.86733 -4.072427 -3.459054 4.677331 3.543989 11.18914 -7.910716 1.670668 21.5626 6.637191 2.231162 -26.9527 10.65129 6.053776 -21.44938 12.54262 86.4023 37.85523 -17.51576 -0 0 14.49175 -6.580083 8.591553 6.396094 4.453221 -18.71094 -1.748499 -91.21758 20.76306 20.45775 0 0 -17.0706 15.43866 12.82601 -2.900466
0.6288505 104.2949 3.969112 -0.0375811 1.15921 -0.255313 5.205279 -24.06912 7.514001 -0 28.24032 -0 -5.335348 -12.19936 -2.49419 -6.395188 11.93709 -20.37271 -0 6.882023 -0 8.716308 -18.55061 24.29731 -3.192111 -2.927263 4.107471 3.130197 9.347365 -7.91572 1.515551 21.7321 6.741686 2.634677 -25.66302 9.979548 5.41513 -19.02332 11.37779 86.61565 34.76773 -20.04478 -0 0 13.84568 -8.088608 9.040065 5.253057 6.339767 -20.38049 -1.364277 -92.21309 25.34311 19.80914 0 0 -18.14081 10.08887 16.13252 2.645166
0.7784919 104.2975 6.99263 -0.3125348 1.329044 -0.03220009 5.22648 -26.28402 5.683696 -0 23.61058 -0 -5.667633 -9.538559 -2.328062 -5.886889 13.12519 -19.05387 -0 7.856835 -0 4.885669 -20.60671 21.1765 -2.703967 -2.522354 3.693283 2.916396 8.895784 -7.956985 1.490085 21.81142 6.845588 2.836755 -25.34618 9.65446 4.761839 -18.4519 11.07806 87.55721 33.21504 -21.30421 -0 0 12.86552 -9.469364 9.312642 5.664654 6.602119 -21.15606 -1.816872 -92.04286 27.57466 19.34872 0 0 -20.45355 6.721501 16.85842 6.730961
0.8541978 103.9762 10.61004 -0.4316804 1.005995 0.2585049 4.905519 -28.36297 3.439841 -0 18.36791 -0 -6.298316 -5.932544 -2.189815 -5.496438 14.65548 -17.53835 -0 8.068427 -0 1.696833 -22.24993 18.21451 -2.20344 -2.07991 3.197021 2.63764 8.727078 -7.96095 1.506644 21.99589 6.886505 2.889425 -25.0427 9.285132 3.509531 -18.23338 10.89867 89.19605 30.68288 -22.60648 -0 0 11.19942 -11.73081 9.529127 6.911738 6.526571 -22.08939 -2.820829 -90.93761 29.47931 18.08331 0 0 -24.34813 3.191795 16.94717 11.18118
0.8710214 103.4303 14.73757 -0.5280925 0.624481 0.6020799 4.657487 -29.97164 1.812073 -0 14.56093 -0 -6.919817 -3.030357 -2.231552 -5.182284 16.02301 -16.37759 -0 8.318352 -0 -0.5889779 -23.28533 16.0703 -1.775952 -1.698854 2.755794 2.402049 8.609127 -7.932113 1.604301 22.16558 6.867237 2.867868 -24.78831 9.061409 2.399745 -18.04845 10.74967 90.57081 28.60577 -23.45572 -0 0 9.707893 -13.53398 9.694658 7.998808 6.316761 -22.70348 -3.673493 -89.76206 30.84193 16.76412 0 0 -27.55941 0.5296833 16.7144 14.61405
0.8341497 102.7016 19.39154 -0.6312314 0.1976564 0.9845234 4.487746 -31.41625 0.4233799 -0 11.22089 -0 -7.598212 -0.3704434 -2.348946 -4.905137 17.35202 -15.20258 -0 8.925858 -0 -2.200747 -23.88088 14.34541 -1.346794 -1.384471 2.337242 2.197406 8.571754 -7.894717 1.763009 22.32947 6.76155 2.748864 -24.55772 8.914462 1.246124 -17.85809 10.61002 91.91772 26.54894 -24.08569 -0 0 8.147365 -15.17851 9.814756 9.035192 6.058507 -23.23277 -4.454271 -88.332 31.5106 15.14834 0 0 -30.4324 -1.205634 16.34363 16.9502
0.7420197 101.8706 24.57383 -0.7827324 -0.2763555 1.384027 4.47433 -32.5542 -0.6436899 -0 8.609312 -0 -8.343591 1.89256 -2.592557 -4.616658 18.61939 -14.06705 -0 10.24559 -0 -3.369725 -24.01906 12.98211 -0.8880445 -1.142844 1.917861 2.022019 8.55944 -7.853742 1.977385 22.51279 6.581134 2.553761 -24.31444 8.843862 0.1305568 -17.58633 10.4638 93.18566 24.6342 -24.51915 -0 0 6.569156 -16.58734 9.945415 9.92668 5.749391 -23.62911 -5.10944 -86.87397 31.69381 13.43598 0 0 -32.68699 -2.246685 16.04315 18.44234
0.5865065 101.0569 30.28759 -1.01178 -0.8311653 1.762085 4.698858 -33.18667 -1.34597 -0 6.880093 -0 -9.194641 3.66574 -2.982025 -4.295627 19.75306 -12.94067 -0 12.8125 -0 -4.117853 -23.52679 11.97846 -0.366947 -1.010369 1.499419 1.87861 8.585969 -7.820499 2.236566 22.73684 6.316723 2.278475 -24.03042 8.836329 -0.9235867 -17.20345 10.31646 94.38941 22.88583 -24.78743 -0 0 4.965507 -17.75691 10.12818 10.63117 5.383261 -23.90016 -5.616305 -85.50352 31.33073 11.73079 0 0 -34.11633 -2.541789 15.95396 19.00932
0.3572381 100.449 36.48879 -1.348114 -1.470523 2.061109 5.276738 -32.93914 -1.496204 -0 6.525646 -0 -10.14429 4.680138 -3.557666 -3.917941 20.52006 -11.9409 -0 17.23676 -0 -4.527304 -22.155 11.38758 0.2415533 -1.016349 1.121882 1.77186 8.649415 -7.803671 2.512945 23.00051 5.994791 1.954403 -23.70445 8.885682 -1.784318 -16.7176 10.19039 95.44788 21.56572 -24.89243 -0 0 3.50204 -18.57465 10.4339 11.05813 4.918635 -23.96416 -5.922312 -84.51515 30.54847 10.40497 0 0 -34.39222 -2.224377 16.14622 18.81549
0.0525559 100.2884 43.05318 -1.775841 -2.184365 2.205416 6.212852 -31.27768 -0.9987187 -0 7.912746 -0 -11.12134 4.636022 -4.292442 -3.50091 20.44912 -11.19495 -0 24.08463 -0 -4.653997 -19.61754 11.22845 0.9350673 -1.197219 0.9077445 1.699657 8.798517 -7.806448 2.746719 23.27303 5.663517 1.623246 -23.37694 8.965017 -2.321708 -16.25262 10.13599 96.26357 20.9375 -24.84839 -0 0 2.472904 -18.99712 10.933 11.17608 4.310177 -23.76811 -6.002499 -84.21027 29.47058 9.963693 0 0 -33.32364 -1.45277 16.5939 18.08255
